<?xml version="1.0" standalone="no"?>
<!DOCTYPE svg PUBLIC "-//W3C//DTD SVG 20010904//EN"
 "http://www.w3.org/TR/2001/REC-SVG-20010904/DTD/svg10.dtd">
<svg version="1.0" xmlns="http://www.w3.org/2000/svg"
 width="1200.000000pt" height="1200.000000pt" viewBox="0 0 1200.000000 1200.000000"
 preserveAspectRatio="xMidYMid meet">

<g transform="translate(0.000000,1200.000000) scale(0.100000,-0.100000)"
fill="#000000" stroke="none">
<path d="M6027 11834 c-3 -3 -40 -12 -82 -19 -78 -14 -160 -48 -210 -86 -49
-39 -76 -95 -99 -210 -3 -14 -6 -388 -6 -830 -1 -578 2 -819 11 -859 14 -66
42 -125 78 -163 38 -42 143 -97 193 -103 24 -2 50 -8 58 -12 8 -4 551 -9 1207
-12 l1191 -5 43 -30 c33 -23 49 -44 67 -90 22 -55 24 -73 24 -227 0 -91 -5
-191 -12 -221 -15 -76 3 -123 53 -132 74 -14 163 42 257 162 36 46 125 192
146 240 14 32 36 81 48 108 13 28 26 62 29 76 12 47 51 93 91 107 28 9 167 13
520 15 297 2 500 8 531 14 67 15 151 60 196 104 20 20 49 63 65 95 l29 59 3
840 c3 870 1 904 -39 980 -28 51 -94 120 -134 139 -31 15 -132 41 -205 54 -47
8 -4045 14 -4053 6z m4161 -143 c73 -33 127 -96 143 -169 10 -43 14 -248 16
-844 3 -725 1 -793 -15 -845 -24 -77 -78 -133 -157 -158 -56 -18 -92 -20 -555
-20 -458 0 -499 -2 -545 -19 -94 -35 -136 -85 -185 -221 -18 -49 -53 -126 -78
-170 -25 -44 -51 -90 -57 -101 -20 -40 -107 -153 -121 -158 -20 -8 -22 3 -13
79 21 178 0 353 -53 439 -39 65 -74 93 -157 125 l-66 26 -1150 2 c-632 0
-1178 4 -1212 8 -126 13 -215 96 -234 218 -17 106 -6 1631 11 1681 14 39 53
84 98 114 62 41 53 41 2207 39 l2070 -2 53 -24z"/>
<path d="M9609 11266 c-2 -3 -26 -7 -52 -10 -136 -17 -242 -116 -302 -284 -15
-41 -24 -76 -21 -79 3 -4 2 -11 -4 -17 -5 -7 -14 -71 -21 -144 -26 -302 43
-502 202 -580 83 -40 133 -52 216 -53 114 -1 170 21 247 97 46 44 106 150 106
184 0 9 4 20 9 25 36 37 55 420 26 541 -27 117 -96 219 -180 269 -57 33 -209
67 -226 51z m93 -148 c50 -15 100 -61 128 -118 13 -25 26 -53 31 -62 19 -38
31 -167 25 -268 -16 -281 -105 -433 -255 -434 -193 -1 -294 158 -278 439 11
199 60 345 132 401 67 50 141 65 217 42z"/>
<path d="M6231 11246 c-14 -8 -28 -22 -32 -32 -13 -33 -10 -1033 3 -1057 26
-50 90 -64 124 -26 18 20 19 36 15 260 l-3 239 206 0 206 0 0 -243 c0 -224 2
-245 18 -260 25 -23 74 -21 103 2 l24 19 -2 534 -3 533 -27 23 c-20 18 -33 22
-56 18 -57 -12 -57 -11 -57 -232 0 -111 -4 -214 -10 -228 l-10 -26 -185 0
c-140 0 -187 3 -190 13 -2 6 -6 109 -9 227 -4 152 -10 218 -19 227 -20 20 -70
25 -96 9z"/>
<path d="M7901 11247 c-14 -7 -28 -26 -33 -44 -5 -18 -7 -262 -6 -543 3 -473
4 -511 21 -527 16 -16 43 -18 248 -21 252 -4 272 0 285 54 5 19 0 32 -22 55
l-28 29 -168 0 c-126 0 -170 3 -173 13 -4 14 -15 574 -15 803 0 105 -4 155
-12 166 -18 22 -68 30 -97 15z"/>
<path d="M8610 11240 c-19 -19 -20 -34 -21 -515 -1 -272 -2 -510 -3 -527 -1
-20 7 -42 21 -58 l21 -25 230 -3 230 -3 21 27 c26 33 22 69 -11 97 -17 15 -43
17 -189 17 l-169 0 -1 88 c-1 48 0 252 0 453 2 395 -3 452 -42 463 -40 11 -67
6 -87 -14z"/>
<path d="M7134 11215 c-12 -28 -14 -122 -14 -544 0 -486 1 -510 19 -532 19
-24 21 -24 256 -27 234 -3 238 -3 261 19 40 38 27 89 -27 108 -18 6 -102 11
-195 11 l-164 0 0 193 0 192 158 3 c167 3 188 9 192 57 7 67 0 69 -182 75
l-163 5 -3 177 -2 176 106 7 c58 4 135 5 171 1 82 -8 113 7 113 57 0 18 -5 38
-12 45 -9 9 -79 12 -256 12 l-243 0 -15 -35z"/>
<path d="M3380 10090 c-14 -5 -44 -8 -67 -9 -23 -1 -63 -8 -89 -17 -26 -9 -58
-18 -72 -20 -37 -7 -180 -80 -247 -127 -50 -34 -157 -135 -209 -197 -90 -106
-231 -340 -298 -495 -82 -190 -142 -283 -250 -387 -102 -98 -205 -151 -417
-214 -423 -125 -585 -247 -849 -641 -34 -50 -62 -94 -62 -98 0 -3 -13 -25 -29
-48 -43 -64 -155 -293 -181 -372 -13 -38 -27 -74 -31 -80 -4 -5 -10 -23 -13
-40 -3 -16 -13 -57 -21 -90 -26 -97 -31 -384 -10 -595 18 -184 16 -264 -11
-425 -8 -49 -16 -106 -19 -125 -2 -19 -7 -51 -11 -70 -18 -83 -29 -274 -18
-298 4 -9 8 -22 9 -27 1 -23 47 -83 68 -90 100 -31 175 31 216 181 38 134 20
380 -40 558 -38 109 -15 216 66 314 42 50 136 112 170 112 37 0 71 -33 81 -79
3 -14 9 -33 13 -41 19 -37 -8 -483 -40 -665 -6 -33 -13 -80 -15 -105 -2 -25
-7 -56 -11 -70 -4 -14 -8 -32 -9 -40 -3 -19 -62 -320 -109 -560 -20 -102 -41
-194 -46 -205 -5 -11 -11 -38 -13 -60 -1 -22 -6 -47 -9 -55 -7 -19 -45 -237
-53 -304 -3 -27 -10 -58 -15 -69 -6 -10 -8 -25 -5 -33 3 -8 1 -22 -4 -32 -11
-20 -50 -322 -56 -437 -2 -44 -7 -91 -11 -105 -10 -40 -12 -460 -3 -515 5 -27
12 -86 15 -130 5 -67 46 -353 59 -405 2 -8 6 -26 10 -40 3 -14 8 -41 11 -60 6
-45 44 -220 52 -240 4 -8 8 -28 10 -45 1 -16 7 -39 12 -50 6 -11 25 -76 42
-145 18 -69 36 -132 40 -140 5 -8 22 -62 40 -120 45 -153 108 -278 172 -344
94 -96 230 -143 372 -129 143 14 215 101 187 224 -15 66 -46 111 -131 194
-136 132 -173 223 -236 575 -41 231 -46 702 -9 940 2 14 8 58 14 98 18 123 59
339 74 384 8 24 28 97 45 163 18 66 36 129 41 140 4 11 23 65 40 120 17 55 34
107 37 115 4 8 7 18 7 22 2 15 14 18 23 6 6 -7 21 -44 33 -83 13 -38 33 -92
46 -120 13 -27 32 -72 43 -100 46 -119 165 -361 245 -500 32 -57 41 -84 48
-145 4 -41 10 -88 12 -105 2 -16 9 -67 15 -111 6 -45 20 -129 31 -185 26 -134
25 -131 32 -149 3 -8 18 -69 33 -135 27 -116 100 -353 129 -418 8 -18 29 -68
47 -112 18 -44 36 -81 41 -83 4 -2 8 -10 8 -18 0 -8 21 -49 47 -92 111 -185
224 -297 364 -366 52 -25 115 -49 139 -52 25 -4 53 -10 63 -16 17 -9 192 -12
257 -4 107 13 184 52 234 119 31 42 29 154 -6 227 -37 80 -67 114 -223 253
-249 221 -485 473 -678 726 -32 42 -67 86 -78 98 -10 13 -38 51 -61 85 -23 35
-46 65 -50 66 -5 2 -8 9 -8 17 0 7 -7 18 -15 25 -8 7 -29 37 -46 66 -17 30
-36 60 -43 67 -7 7 -38 54 -69 105 -64 107 -73 150 -70 342 1 107 30 293 52
345 5 11 23 61 40 112 24 72 204 451 287 605 21 40 100 230 136 328 17 47 34
90 38 95 5 6 22 57 40 115 18 58 36 110 40 115 5 6 10 24 13 40 3 17 12 52 21
79 8 27 25 97 37 155 12 58 25 110 30 115 4 5 22 2 41 -6 88 -41 256 -99 410
-142 309 -87 734 -85 1041 5 38 11 71 19 72 17 2 -2 0 -33 -6 -68 -5 -36 -12
-101 -15 -145 -4 -44 -10 -88 -15 -97 -5 -10 -9 -30 -8 -45 1 -24 -34 -352
-58 -543 -3 -30 -6 -59 -5 -63 2 -5 -2 -25 -7 -45 -5 -20 -12 -68 -15 -107 -4
-38 -18 -164 -31 -280 -14 -115 -28 -241 -30 -280 -3 -38 -9 -90 -14 -115 -5
-25 -9 -56 -9 -70 0 -14 -5 -65 -11 -115 -37 -336 -44 -873 -16 -1185 9 -102
21 -193 27 -203 5 -10 7 -25 4 -33 -3 -8 -1 -25 3 -38 5 -12 12 -43 14 -67 7
-64 47 -238 62 -277 8 -17 11 -32 8 -32 -3 0 -1 -6 5 -12 5 -7 17 -39 26 -71
22 -76 90 -218 137 -288 37 -55 134 -149 153 -149 5 0 17 -6 25 -13 22 -19
127 -55 183 -63 88 -12 201 39 244 111 27 45 23 123 -9 178 -26 44 -64 74
-162 127 -31 17 -74 48 -96 70 -44 43 -104 163 -114 225 -31 207 -34 248 -34
510 0 181 5 330 15 420 8 77 17 160 19 185 3 25 8 56 12 70 4 14 8 36 9 50 3
31 51 280 65 335 6 22 18 73 28 114 9 41 21 76 27 78 5 2 19 -78 32 -189 12
-106 24 -204 26 -218 2 -14 18 -124 35 -245 17 -121 36 -231 41 -245 6 -14 11
-45 12 -70 1 -25 5 -52 9 -60 4 -8 20 -85 35 -170 14 -85 31 -160 36 -167 5
-7 7 -17 4 -22 -4 -6 -2 -18 3 -28 5 -10 22 -72 37 -138 14 -66 30 -126 35
-135 4 -8 20 -58 34 -110 15 -52 33 -108 40 -125 8 -16 15 -37 17 -45 2 -8 5
-17 9 -20 3 -3 16 -30 28 -60 80 -189 232 -301 428 -317 111 -9 106 -9 180 0
123 15 195 84 189 180 -5 72 -57 131 -166 188 -132 70 -189 129 -258 264 -18
36 -79 219 -87 263 -2 9 -4 17 -6 17 -1 0 -3 9 -5 20 -2 11 -10 52 -19 90 -17
81 -53 335 -63 445 -9 99 -8 993 1 1140 24 386 57 1062 63 1280 3 140 10 262
15 271 5 9 6 19 3 22 -6 6 63 135 83 155 7 8 22 31 33 52 26 51 154 168 239
218 165 99 284 97 637 -8 199 -60 413 -112 548 -134 709 -118 1337 3 1866 358
168 113 277 209 389 346 25 30 49 57 53 58 4 2 8 8 8 13 0 5 9 20 21 33 31 36
117 185 136 236 9 25 20 49 25 54 4 6 8 20 8 32 0 13 4 25 9 29 11 6 29 89 35
160 4 55 1 53 119 75 65 12 138 54 190 109 54 57 77 99 83 154 3 22 7 43 9 46
1 4 -1 31 -6 62 -9 58 -46 138 -81 175 -11 12 -26 51 -34 87 -11 49 -24 74
-47 97 l-31 30 22 16 c13 9 37 44 54 77 53 108 40 225 -32 279 -70 51 -271 39
-377 -22 -32 -19 -34 -19 -94 0 -184 59 -474 46 -660 -30 -67 -27 -150 -76
-157 -92 -8 -17 -29 -4 -57 35 -20 27 -52 53 -90 72 -54 27 -67 30 -159 30
-113 0 -149 -14 -195 -76 -39 -52 -39 -108 -1 -183 43 -86 91 -130 167 -155
34 -12 73 -21 87 -21 14 0 28 -5 31 -10 8 -12 -13 -158 -26 -181 -5 -9 -10
-32 -12 -50 -2 -19 -6 -41 -9 -49 -4 -8 -14 -40 -24 -70 -41 -134 -126 -283
-219 -387 -243 -272 -707 -343 -1120 -173 -44 18 -91 42 -104 52 -13 10 -28
18 -33 18 -19 0 -136 97 -223 185 -136 138 -127 126 -358 475 -94 143 -184
262 -295 390 -87 101 -313 323 -378 371 -33 24 -84 64 -115 89 -63 50 -157
117 -325 231 -233 159 -431 325 -609 512 -132 138 -277 261 -399 340 -67 44
-212 117 -231 117 -7 0 -26 7 -44 16 -18 9 -62 21 -99 26 -84 13 -319 18 -352
8z m330 -135 c105 -25 174 -52 255 -100 42 -25 78 -45 81 -45 18 0 218 -180
404 -364 113 -111 230 -221 260 -244 30 -22 82 -61 115 -86 129 -97 184 -136
276 -198 145 -99 289 -203 323 -234 6 -5 65 -58 131 -116 108 -94 233 -223
311 -318 16 -19 34 -39 40 -45 7 -5 40 -48 74 -95 34 -47 65 -87 69 -90 3 -3
11 -13 16 -22 27 -47 156 -243 209 -318 120 -170 259 -321 356 -386 19 -12 46
-32 60 -43 14 -11 29 -21 33 -21 5 0 22 -9 37 -20 16 -11 75 -39 132 -61 333
-132 705 -132 985 2 195 93 316 206 423 394 48 85 100 207 96 226 0 3 5 13 11
21 13 16 65 210 64 243 0 10 4 24 9 30 5 6 9 20 8 30 -3 62 75 235 126 280 35
31 113 73 176 95 172 60 441 64 591 8 15 -5 64 -48 110 -95 46 -47 92 -93 102
-101 23 -22 22 -32 -3 -32 -43 0 -119 -49 -140 -90 -26 -50 -25 -56 6 -97 49
-64 189 -110 307 -100 66 6 67 6 82 -24 9 -16 12 -29 8 -29 -4 0 -2 -5 5 -12
7 -7 12 -41 12 -80 0 -75 -19 -126 -62 -164 -25 -23 -110 -57 -169 -68 -36 -6
-37 -5 -58 40 -27 56 -122 155 -176 182 -22 10 -64 27 -94 37 -97 32 -231 1
-277 -62 -24 -34 -57 -113 -49 -121 3 -3 -3 -14 -12 -24 -19 -22 -19 -23 73
-87 89 -64 276 -113 370 -98 18 3 41 3 52 0 18 -4 18 -8 6 -76 -32 -183 -146
-390 -310 -563 -58 -60 -202 -186 -259 -225 -27 -19 -52 -36 -55 -39 -10 -10
-90 -60 -96 -60 -3 0 -18 -8 -32 -19 -96 -68 -361 -181 -522 -223 -25 -6 -52
-13 -60 -15 -8 -3 -42 -9 -75 -14 -33 -5 -73 -14 -90 -19 -33 -10 -246 -32
-365 -37 -41 -1 -133 4 -205 12 -71 8 -154 15 -183 15 -29 0 -62 4 -72 10 -10
5 -52 14 -92 19 -40 5 -84 12 -98 16 -14 4 -52 13 -85 21 -135 31 -186 44
-310 84 -182 57 -340 90 -433 90 -185 0 -387 -95 -512 -241 -146 -171 -267
-365 -393 -629 -87 -184 -115 -247 -148 -335 -12 -33 -25 -64 -29 -70 -4 -5
-22 -53 -40 -105 -18 -52 -37 -99 -42 -105 -4 -5 -8 -18 -8 -30 0 -12 -4 -25
-9 -30 -5 -6 -24 -57 -41 -115 -18 -58 -36 -109 -40 -115 -4 -5 -20 -50 -34
-100 -15 -49 -29 -96 -31 -103 -3 -7 -5 -14 -5 -17 0 -3 -6 -21 -14 -40 -9
-20 -15 -37 -16 -40 0 -3 -2 -10 -4 -17 -3 -7 -12 -44 -22 -83 -9 -38 -21 -75
-26 -81 -4 -6 -6 -13 -3 -16 3 -3 -3 -31 -14 -64 -10 -32 -31 -117 -45 -189
-15 -71 -30 -137 -33 -145 -4 -8 -8 -24 -9 -35 -2 -11 -6 -31 -9 -45 -9 -42
-55 -312 -60 -360 -3 -25 -8 -65 -12 -90 -22 -159 -34 -467 -23 -626 14 -207
16 -220 29 -299 30 -176 69 -285 127 -353 25 -29 135 -112 150 -112 13 0 110
-74 128 -98 l19 -25 -37 -35 c-36 -33 -41 -34 -100 -30 -115 7 -219 81 -303
213 -53 84 -162 423 -177 550 -2 11 -5 27 -9 35 -5 15 -30 192 -41 300 -10 88
-36 582 -32 589 2 3 7 67 10 141 15 304 29 472 70 840 2 14 6 39 9 55 4 17 9
59 12 95 3 36 16 160 30 275 14 116 28 226 30 245 2 19 7 55 9 80 3 25 22 189
41 365 40 356 39 348 55 463 l13 83 71 35 c96 47 121 62 191 112 155 111 303
288 370 442 22 51 29 85 33 156 4 84 2 94 -21 131 -44 70 -109 95 -218 82 -58
-6 -149 -38 -149 -51 0 -5 -6 -8 -12 -8 -23 -1 -134 -113 -176 -178 -22 -34
-54 -97 -72 -140 -17 -42 -35 -86 -40 -97 -15 -33 -50 -167 -55 -214 -3 -24
-8 -48 -12 -54 -4 -6 -8 -22 -9 -36 -9 -82 -17 -95 -71 -111 -29 -8 -55 -18
-59 -22 -4 -5 -19 -8 -34 -8 -15 0 -30 -3 -34 -7 -3 -4 -14 -8 -24 -9 -9 -2
-35 -7 -57 -12 -176 -44 -464 -48 -680 -11 -64 11 -310 77 -335 90 -8 4 -42
17 -75 29 -102 38 -223 95 -385 183 -79 43 -250 159 -275 187 -17 18 -17 25
-6 53 17 44 25 276 13 362 -24 164 -61 331 -88 400 -71 178 -143 267 -228 279
-118 18 -221 -55 -342 -239 -65 -100 -178 -318 -228 -440 -18 -44 -37 -89 -41
-100 -5 -11 -9 -22 -10 -25 -1 -3 -6 -17 -12 -31 -6 -14 -17 -45 -24 -70 -7
-24 -16 -48 -21 -54 -4 -5 -8 -23 -8 -40 0 -18 -3 -35 -7 -39 -4 -3 -8 -12
-10 -19 -2 -7 -11 -46 -20 -87 -10 -41 -22 -81 -26 -87 -5 -7 -6 -16 -4 -20 3
-5 0 -33 -5 -63 -30 -166 -42 -371 -29 -527 14 -178 14 -179 50 -373 37 -197
36 -191 44 -210 4 -8 8 -28 10 -45 2 -16 6 -37 10 -45 3 -8 16 -55 28 -105 12
-49 26 -95 30 -101 27 -34 6 -141 -58 -294 -3 -8 -7 -19 -8 -25 -2 -9 -49
-148 -63 -185 -3 -8 -7 -24 -9 -35 -1 -11 -7 -29 -13 -40 -5 -11 -24 -76 -40
-145 -17 -69 -35 -136 -40 -150 -10 -27 -10 -27 -45 -220 -28 -153 -35 -198
-40 -255 -2 -22 -7 -76 -11 -120 -10 -104 -11 -464 -1 -580 4 -49 10 -110 11
-135 5 -54 43 -287 53 -315 4 -11 7 -24 8 -30 2 -23 18 -81 25 -90 4 -5 15
-32 24 -60 10 -27 26 -63 37 -80 10 -16 24 -41 30 -55 6 -14 38 -52 72 -85
124 -123 156 -200 100 -245 -24 -19 -37 -21 -93 -18 -119 9 -227 77 -274 174
-31 63 -116 307 -146 419 -12 44 -28 100 -36 124 -8 24 -12 46 -9 49 2 3 1 10
-4 16 -5 6 -16 47 -26 91 -9 44 -19 87 -23 95 -3 8 -7 22 -8 30 -1 8 -5 26 -9
40 -7 30 -8 38 -40 210 -14 74 -28 162 -31 195 -3 33 -9 74 -13 90 -5 17 -9
39 -9 50 0 11 -5 70 -10 130 -14 142 -14 449 -1 590 6 61 10 119 10 130 0 11
4 31 9 45 5 14 12 54 15 90 3 36 16 133 30 215 14 83 27 161 29 175 2 14 7 36
10 50 3 14 8 39 11 55 19 119 47 253 55 268 6 10 9 21 6 25 -3 5 0 26 5 48 33
129 152 729 164 824 1 14 6 43 10 65 4 22 9 58 11 80 2 22 11 92 19 155 22
182 29 385 16 470 -16 100 -56 178 -107 208 -33 19 -50 22 -104 19 -109 -7
-209 -64 -271 -154 -36 -52 -48 -47 -55 23 -6 58 -6 296 0 339 30 239 120 459
307 753 84 131 222 307 292 372 52 47 143 120 150 120 3 0 26 14 50 30 25 17
50 30 56 30 7 0 26 7 44 17 30 15 153 54 287 90 30 8 59 19 65 24 5 5 16 9 25
9 8 0 32 9 53 20 20 11 42 20 48 20 26 0 179 113 254 187 91 91 93 94 215 338
120 239 157 309 206 380 182 264 366 401 604 450 91 19 319 18 400 0z m6062
-1442 c36 -33 10 -151 -37 -170 -21 -7 -88 40 -135 98 -22 26 -40 50 -40 53 0
16 70 35 129 36 46 0 70 -5 83 -17z m-1386 -44 c59 -36 78 -93 49 -149 -14
-27 -21 -30 -61 -30 -151 0 -266 169 -139 203 37 10 116 -2 151 -24z m1376
-336 c17 -15 17 -17 2 -35 -29 -31 -174 -16 -174 18 0 32 140 46 172 17z
m-446 -424 c114 -54 182 -132 127 -145 -37 -10 -157 5 -220 27 -57 19 -113 62
-113 85 0 7 17 26 37 43 45 37 75 36 169 -10z m-7194 -296 c46 -49 114 -215
124 -303 2 -14 6 -36 10 -50 29 -99 46 -405 26 -475 -9 -29 -10 -30 -66 -27
-131 7 -263 -45 -348 -136 -52 -57 -118 -174 -118 -210 0 -10 -5 -23 -12 -30
-8 -8 -13 -48 -13 -115 0 -90 3 -106 22 -133 52 -73 144 -81 256 -22 143 75
227 162 308 318 27 52 50 98 52 103 2 6 32 -9 68 -33 86 -58 258 -160 270
-160 11 0 11 -42 -2 -100 -16 -77 -20 -95 -21 -110 0 -8 -5 -21 -11 -28 -5 -7
-7 -15 -4 -19 4 -3 3 -11 -2 -17 -4 -6 -16 -45 -26 -86 -10 -41 -21 -79 -26
-84 -5 -6 -9 -22 -9 -36 0 -14 -4 -30 -9 -36 -5 -5 -21 -47 -36 -94 -15 -47
-33 -98 -40 -115 -7 -16 -27 -66 -44 -110 -36 -90 -39 -97 -75 -177 -14 -31
-26 -62 -26 -67 0 -6 -4 -11 -10 -11 -5 0 -10 -6 -10 -13 0 -8 -44 -101 -98
-208 -54 -107 -108 -219 -121 -249 -13 -30 -31 -73 -41 -95 -10 -22 -28 -74
-40 -115 -12 -41 -28 -97 -37 -125 -8 -27 -16 -67 -17 -87 -1 -21 -5 -40 -9
-44 -4 -4 -7 -31 -7 -61 0 -40 -4 -53 -15 -53 -8 0 -15 4 -15 9 0 6 -18 49
-41 98 -22 48 -52 115 -66 148 -13 33 -32 78 -42 100 -10 22 -28 69 -41 105
-13 36 -26 70 -30 75 -4 6 -17 42 -30 80 -12 39 -28 84 -35 100 -17 39 -40
114 -60 195 -9 36 -19 72 -22 80 -3 8 -7 26 -9 40 -2 14 -8 34 -14 45 -8 17
-63 267 -75 345 -2 14 -11 66 -19 117 -32 197 -29 512 6 673 5 25 11 56 13 70
12 74 67 292 85 335 5 11 22 59 39 108 33 93 68 174 134 302 22 44 47 94 55
110 35 69 130 204 179 253 63 63 103 70 145 25z m2940 -610 c12 -11 18 -30 18
-62 0 -46 -17 -122 -29 -131 -3 -3 -17 -26 -30 -53 -28 -55 -94 -142 -157
-209 -87 -90 -276 -229 -287 -210 -7 11 14 136 24 146 5 6 9 25 9 42 0 18 4
35 9 38 5 3 14 27 20 53 16 61 71 179 110 237 96 139 245 210 313 149z m-2838
-383 l25 -9 -29 -71 c-42 -101 -94 -184 -154 -241 -63 -62 -158 -113 -193
-104 -25 6 -25 7 -21 98 5 127 37 194 129 272 59 49 184 78 243 55z m-1559
-302 c7 -53 2 -232 -7 -278 -7 -34 -36 -90 -48 -90 -27 0 -24 164 7 333 18
102 38 116 48 35z m4711 -726 c-2 -81 -7 -165 -10 -187 -3 -22 -8 -123 -11
-225 -4 -102 -13 -300 -21 -440 -9 -150 -16 -495 -19 -835 -3 -520 -1 -595 15
-725 10 -80 21 -169 25 -199 3 -30 8 -58 12 -64 3 -6 8 -20 9 -31 7 -43 42
-203 55 -246 7 -25 13 -48 15 -52 1 -5 2 -9 4 -10 1 -2 3 -11 5 -22 5 -25 43
-120 71 -176 38 -78 112 -166 167 -201 28 -18 54 -36 57 -39 3 -3 31 -19 62
-34 73 -37 101 -66 96 -102 -2 -19 -13 -34 -37 -48 -32 -18 -42 -19 -150 -9
-148 13 -206 43 -286 144 -96 122 -188 394 -281 829 -18 85 -33 155 -34 155
-1 0 -3 18 -6 40 -2 22 -7 51 -11 65 -4 14 -8 32 -9 40 -1 8 -7 40 -13 70 -11
54 -48 284 -76 470 -8 52 -24 181 -35 285 -26 250 -28 266 -35 295 -11 54 -10
307 2 321 6 8 11 17 12 22 0 12 61 200 71 222 6 11 23 58 39 105 64 184 176
469 231 585 15 33 38 82 50 108 11 26 25 45 30 42 6 -4 8 -65 6 -153z m-3150
-2094 c26 -40 50 -75 54 -78 3 -3 22 -27 40 -55 32 -47 128 -174 140 -185 3
-3 21 -25 40 -50 19 -25 50 -64 69 -86 20 -23 61 -70 91 -105 95 -110 280
-296 420 -422 170 -154 215 -201 241 -255 48 -99 30 -159 -55 -181 -67 -16
-249 -14 -325 5 -148 36 -296 149 -394 299 -59 91 -143 269 -196 415 -33 94
-104 338 -115 400 -2 8 -6 22 -9 30 -4 8 -18 78 -32 155 -14 77 -27 150 -30
163 -10 42 14 22 61 -50z"/>
<path d="M8736 8232 c-3 -5 -18 -12 -33 -15 -36 -8 -86 -52 -108 -96 -15 -29
-15 -40 -5 -71 16 -49 41 -62 126 -68 117 -7 236 30 264 83 31 58 -1 120 -77
152 -50 21 -157 31 -167 15z m120 -114 c12 -20 -32 -37 -93 -38 -65 0 -79 11
-40 31 47 26 119 29 133 7z"/>
</g>
</svg>
